<svg width="128" height="20" viewBox="0 0 128 20" fill="none" xmlns="http://www.w3.org/2000/svg">
<path d="M4.52557 19H0.571023L6.59659 1.54545H11.3523L17.3693 19H13.4148L9.04261 5.53409H8.90625L4.52557 19ZM4.27841 12.1392H13.6193V15.0199H4.27841V12.1392ZM35.0514 1.54545H38.7418V12.8807C38.7418 14.1534 38.4378 15.267 37.8298 16.2216C37.2276 17.1761 36.3838 17.9205 35.2986 18.4545C34.2134 18.983 32.9491 19.2472 31.506 19.2472C30.0571 19.2472 28.7901 18.983 27.7048 18.4545C26.6196 17.9205 25.7759 17.1761 25.1736 16.2216C24.5713 15.267 24.2702 14.1534 24.2702 12.8807V1.54545H27.9605V12.5653C27.9605 13.2301 28.1054 13.821 28.3952 14.3381C28.6906 14.8551 29.1054 15.2614 29.6395 15.5568C30.1736 15.8523 30.7957 16 31.506 16C32.2219 16 32.844 15.8523 33.3724 15.5568C33.9065 15.2614 34.3185 14.8551 34.6082 14.3381C34.9037 13.821 35.0514 13.2301 35.0514 12.5653V1.54545ZM52.7655 19H46.578V1.54545H52.8166C54.5723 1.54545 56.0837 1.89489 57.3507 2.59375C58.6178 3.28693 59.5922 4.28409 60.274 5.58523C60.9615 6.88636 61.3053 8.44318 61.3053 10.2557C61.3053 12.0739 60.9615 13.6364 60.274 14.9432C59.5922 16.25 58.6121 17.2528 57.3337 17.9517C56.0609 18.6506 54.5382 19 52.7655 19ZM50.2683 15.8381H52.6121C53.703 15.8381 54.6206 15.6449 55.3649 15.2585C56.1149 14.8665 56.6774 14.2614 57.0524 13.4432C57.4331 12.6193 57.6234 11.5568 57.6234 10.2557C57.6234 8.96591 57.4331 7.91193 57.0524 7.09375C56.6774 6.27557 56.1178 5.6733 55.3734 5.28693C54.6291 4.90057 53.7115 4.70739 52.6206 4.70739H50.2683V15.8381ZM72.5293 1.54545V19H68.8389V1.54545H72.5293ZM79.7007 4.58807V1.54545H94.0359V4.58807H88.6922V19H85.0445V4.58807H79.7007ZM101.129 19V5.90909H104.759V19H101.129ZM102.952 4.22159C102.413 4.22159 101.95 4.04261 101.563 3.68466C101.183 3.32102 100.992 2.88636 100.992 2.38068C100.992 1.88068 101.183 1.4517 101.563 1.09375C101.95 0.730113 102.413 0.548295 102.952 0.548295C103.492 0.548295 103.952 0.730113 104.333 1.09375C104.719 1.4517 104.913 1.88068 104.913 2.38068C104.913 2.88636 104.719 3.32102 104.333 3.68466C103.952 4.04261 103.492 4.22159 102.952 4.22159ZM115.996 1.54545L119.516 7.49432H119.652L123.189 1.54545H127.357L122.03 10.2727L127.476 19H123.232L119.652 13.0426H119.516L115.936 19H111.709L117.172 10.2727L111.811 1.54545H115.996Z" fill="url(#paint0_linear_5533_5153)"/>
<defs>
<linearGradient id="paint0_linear_5533_5153" x1="18.8125" y1="18.3333" x2="31.3275" y2="-21.0432" gradientUnits="userSpaceOnUse">
<stop stop-color="#8A8AE9"/>
<stop offset="1" stop-color="#EDB0DB"/>
</linearGradient>
</defs>
</svg>
