<svg width="19" height="16" viewBox="0 0 19 16" fill="none" xmlns="http://www.w3.org/2000/svg">
<g clip-path="url(#clip0_4879_6751)">
<path d="M13.672 5.17188C10.9798 5.17188 8.78027 7.38543 8.78027 10.0988C8.78027 12.8122 10.9798 15.0258 13.672 15.0258C16.3642 15.0258 18.5605 12.8122 18.5605 10.0988C18.5605 7.38543 16.3642 5.17188 13.672 5.17188ZM13.672 6.51438C15.6436 6.51439 17.2252 8.11169 17.2252 10.0988C17.2252 12.086 15.6436 13.6799 13.672 13.6799C11.7004 13.6799 10.1156 12.086 10.1156 10.0988C10.1156 8.11169 11.7004 6.51439 13.672 6.51438Z" fill="black"/>
<path d="M6.09703 0.8125C4.73205 0.8125 3.49406 1.0487 2.53711 1.47042C2.05864 1.68129 1.64626 1.93745 1.32618 2.27095C1.00609 2.60445 0.771484 3.04588 0.771484 3.53691V12.4223C0.771484 12.9133 1.00609 13.3548 1.32618 13.6883C1.64626 14.0218 2.05864 14.2779 2.53711 14.4888C3.49406 14.9105 4.73207 15.1467 6.09703 15.1467C7.00981 15.1467 7.88184 15.0374 8.64909 14.8361C8.8194 14.7909 8.96501 14.6795 9.05414 14.5264C9.14327 14.3733 9.16867 14.1909 9.12478 14.019C9.10294 13.9334 9.06458 13.853 9.01185 13.7823C8.95913 13.7117 8.89307 13.6523 8.81751 13.6074C8.74196 13.5626 8.65837 13.5332 8.57153 13.5209C8.48468 13.5087 8.39629 13.5138 8.31142 13.536C7.66991 13.7043 6.90318 13.8046 6.09703 13.8046C4.8896 13.8046 3.80068 13.5799 3.07184 13.2587C2.70743 13.098 2.43583 12.9133 2.28452 12.7556C2.13317 12.598 2.10743 12.4981 2.10743 12.4223V11.3164C2.2432 11.3921 2.3876 11.4631 2.53711 11.529C3.49406 11.9508 4.73207 12.187 6.09703 12.187C6.51525 12.187 6.9305 12.1631 7.33052 12.1178C7.50618 12.0976 7.66667 12.008 7.77672 11.8685C7.88676 11.729 7.93735 11.5512 7.91733 11.3742C7.90752 11.2864 7.88064 11.2015 7.83823 11.1243C7.79583 11.047 7.73872 10.9789 7.67019 10.9239C7.60167 10.8689 7.52307 10.828 7.43887 10.8037C7.35467 10.7793 7.26652 10.7719 7.17948 10.7819C6.82993 10.8213 6.46593 10.8414 6.09703 10.8414C4.8896 10.8414 3.80068 10.6175 3.07184 10.2963C2.70743 10.1357 2.43583 9.95093 2.28452 9.79326C2.13317 9.63564 2.10743 9.53836 2.10743 9.46255V8.35407C2.2432 8.42974 2.3876 8.50077 2.53711 8.56666C3.49406 8.98839 4.73207 9.22457 6.09703 9.22457C6.43877 9.22457 6.77852 9.20766 7.10743 9.1782C7.19464 9.17018 7.27943 9.14493 7.35695 9.10387C7.43447 9.06281 7.50321 9.00676 7.55923 8.93892C7.61526 8.87108 7.65748 8.79278 7.68347 8.70849C7.70946 8.6242 7.71872 8.53557 7.71072 8.44767C7.70287 8.3597 7.6779 8.27414 7.63721 8.1959C7.59652 8.11767 7.54092 8.04829 7.4736 7.99173C7.40628 7.93517 7.32855 7.89256 7.24486 7.86631C7.16118 7.84006 7.07318 7.83069 6.98591 7.83876C6.69781 7.86515 6.39872 7.88163 6.09703 7.88163C4.8896 7.88163 3.80068 7.65777 3.07184 7.33657C2.70743 7.17597 2.43583 6.98766 2.28452 6.83C2.13317 6.67235 2.10743 6.57598 2.10743 6.50017V5.39081C2.24351 5.46671 2.38721 5.53734 2.53711 5.6034C3.49406 6.02513 4.73205 6.26133 6.09703 6.26133C7.46199 6.26133 8.70257 6.02513 9.65951 5.6034C10.138 5.39254 10.5504 5.13726 10.8704 4.80376C11.1905 4.47025 11.4217 4.02795 11.4217 3.53691C11.4217 3.04588 11.1905 2.60445 10.8704 2.27095C10.5504 1.93745 10.138 1.68129 9.65951 1.47042C8.70257 1.0487 7.46199 0.8125 6.09703 0.8125ZM6.09703 2.15808C7.30445 2.15808 8.39594 2.38282 9.12478 2.70402C9.4892 2.86462 9.75735 3.04855 9.90865 3.20621C10.06 3.36386 10.0892 3.46111 10.0892 3.53691C10.0892 3.61271 10.06 3.71346 9.90865 3.87112C9.7573 4.02878 9.4892 4.21271 9.12478 4.37331C8.39594 4.69452 7.30446 4.91925 6.09703 4.91925C4.8896 4.91925 3.80068 4.69452 3.07184 4.37331C2.70743 4.21271 2.43583 4.02878 2.28452 3.87112C2.13317 3.71347 2.10743 3.61272 2.10743 3.53691C2.10743 3.46112 2.13322 3.36387 2.28452 3.20621C2.43586 3.04856 2.70743 2.86462 3.07184 2.70402C3.80068 2.38282 4.8896 2.15808 6.09703 2.15808Z" fill="black"/>
<path d="M13.6656 7.04688C13.5955 7.04669 13.5261 7.06041 13.4613 7.08727C13.3965 7.11412 13.3376 7.15359 13.288 7.20339C13.2383 7.25319 13.1989 7.31237 13.172 7.37753C13.145 7.4427 13.131 7.51257 13.1309 7.58318V7.69691C12.542 7.91024 12.1074 8.46412 12.1074 9.12387C12.1074 9.97166 12.8256 10.6418 13.6656 10.6418C13.9563 10.6418 14.1543 10.8499 14.1543 11.088C14.1543 11.326 13.9563 11.5342 13.6656 11.5342C13.4806 11.5342 13.3146 11.4392 13.2324 11.3023C13.1591 11.1806 13.0409 11.0932 12.9037 11.0593C12.7665 11.0253 12.6216 11.0476 12.5007 11.1212C12.38 11.195 12.2932 11.3139 12.2594 11.452C12.2255 11.59 12.2474 11.736 12.3201 11.8579C12.5079 12.1704 12.7978 12.3984 13.1309 12.5167V12.6252C13.1307 12.696 13.1444 12.7662 13.1712 12.8316C13.198 12.8971 13.2374 12.9566 13.2871 13.0067C13.3368 13.0567 13.3958 13.0964 13.4607 13.1235C13.5257 13.1505 13.5953 13.1643 13.6656 13.1641C13.8069 13.1636 13.9422 13.1065 14.0418 13.0054C14.1414 12.9044 14.1972 12.7676 14.1968 12.6252V12.5158C14.7861 12.3032 15.2203 11.7487 15.2203 11.088C15.2203 10.2402 14.5055 9.56655 13.6656 9.56655C13.3749 9.56655 13.1734 9.36191 13.1734 9.12387C13.1734 8.88579 13.3749 8.67767 13.6656 8.67767C13.8505 8.67767 14.0131 8.77186 14.0953 8.90864C14.1684 9.03049 14.2866 9.1181 14.4238 9.15222C14.561 9.18634 14.706 9.16418 14.827 9.09061C14.9479 9.01687 15.0349 8.89778 15.0687 8.7595C15.1026 8.62122 15.0806 8.47504 15.0076 8.35308C14.8192 8.03979 14.53 7.81139 14.1968 7.69342V7.58318C14.1965 7.44119 14.1404 7.3051 14.0409 7.20462C13.9414 7.10413 13.8064 7.04743 13.6656 7.04688Z" fill="black"/>
</g>
<defs>
<clipPath id="clip0_4879_6751">
<rect width="18.6667" height="16" fill="white" transform="translate(0.333008)"/>
</clipPath>
</defs>
</svg>
